<svg width="305" height="255" viewBox="0 0 305 255" fill="none" xmlns="http://www.w3.org/2000/svg">
<rect x="10" y="15" width="285" height="230" rx="20" stroke="#FF4500" stroke-width="20"/>
<path d="M246.209 247V243.364H246.526V244.793H246.555C246.59 244.711 246.641 244.627 246.707 244.541C246.775 244.454 246.863 244.382 246.972 244.324C247.082 244.265 247.221 244.235 247.388 244.235C247.611 244.235 247.808 244.295 247.977 244.413C248.146 244.53 248.278 244.695 248.373 244.907C248.468 245.117 248.515 245.363 248.515 245.643C248.515 245.925 248.468 246.172 248.373 246.384C248.279 246.596 248.148 246.761 247.979 246.879C247.811 246.998 247.615 247.057 247.393 247.057C247.227 247.057 247.089 247.027 246.977 246.968C246.867 246.909 246.778 246.836 246.711 246.75C246.644 246.662 246.591 246.577 246.555 246.494H246.516V247H246.209ZM246.521 245.638C246.521 245.858 246.554 246.054 246.619 246.224C246.685 246.393 246.78 246.527 246.903 246.624C247.027 246.719 247.177 246.767 247.354 246.767C247.535 246.767 247.688 246.718 247.814 246.618C247.939 246.518 248.034 246.382 248.1 246.212C248.165 246.041 248.197 245.85 248.197 245.638C248.197 245.429 248.165 245.24 248.1 245.072C248.036 244.904 247.941 244.77 247.815 244.672C247.69 244.573 247.536 244.523 247.354 244.523C247.176 244.523 247.025 244.571 246.901 244.667C246.778 244.762 246.684 244.893 246.619 245.061C246.554 245.228 246.521 245.42 246.521 245.638ZM249.332 248.023C249.269 248.023 249.21 248.017 249.156 248.005C249.102 247.993 249.058 247.98 249.026 247.966L249.112 247.687C249.219 247.72 249.315 247.732 249.399 247.723C249.483 247.714 249.558 247.676 249.623 247.609C249.688 247.543 249.746 247.441 249.797 247.304L249.896 247.027L248.893 244.273H249.236L250.046 246.583H250.07L250.88 244.273H251.223L250.069 247.431C250.02 247.563 249.96 247.672 249.889 247.76C249.818 247.849 249.736 247.914 249.642 247.957C249.55 248.001 249.447 248.023 249.332 248.023ZM253.251 244.273H253.569V247.265C253.569 247.42 253.54 247.553 253.482 247.666C253.425 247.779 253.342 247.867 253.233 247.929C253.124 247.991 252.993 248.023 252.839 248.023C252.827 248.023 252.815 248.023 252.803 248.023C252.792 248.023 252.779 248.022 252.764 248.021L252.768 247.724C252.78 247.724 252.791 247.724 252.802 247.724C252.812 247.724 252.824 247.724 252.835 247.724C252.966 247.724 253.067 247.684 253.141 247.604C253.214 247.523 253.251 247.41 253.251 247.265V244.273ZM253.407 243.804C253.343 243.804 253.288 243.782 253.24 243.738C253.194 243.693 253.171 243.639 253.171 243.577C253.171 243.514 253.194 243.461 253.24 243.417C253.288 243.372 253.343 243.349 253.407 243.349C253.472 243.349 253.528 243.372 253.574 243.417C253.621 243.461 253.645 243.514 253.645 243.577C253.645 243.639 253.621 243.693 253.574 243.738C253.528 243.782 253.472 243.804 253.407 243.804ZM255.465 247.057C255.229 247.057 255.021 246.997 254.84 246.877C254.66 246.758 254.519 246.593 254.417 246.382C254.315 246.17 254.264 245.926 254.264 245.649C254.264 245.369 254.315 245.124 254.417 244.912C254.519 244.699 254.66 244.533 254.84 244.415C255.021 244.295 255.229 244.235 255.465 244.235C255.7 244.235 255.908 244.295 256.088 244.415C256.268 244.534 256.409 244.7 256.51 244.912C256.613 245.124 256.665 245.369 256.665 245.649C256.665 245.926 256.614 246.17 256.512 246.382C256.41 246.593 256.269 246.758 256.088 246.877C255.908 246.997 255.7 247.057 255.465 247.057ZM255.465 246.767C255.654 246.767 255.814 246.717 255.946 246.615C256.077 246.513 256.177 246.377 256.244 246.208C256.313 246.039 256.347 245.852 256.347 245.649C256.347 245.445 256.313 245.258 256.244 245.088C256.177 244.917 256.077 244.781 255.946 244.678C255.814 244.575 255.654 244.523 255.465 244.523C255.276 244.523 255.116 244.575 254.983 244.678C254.852 244.781 254.752 244.917 254.683 245.088C254.616 245.258 254.582 245.445 254.582 245.649C254.582 245.852 254.616 246.039 254.683 246.208C254.752 246.377 254.852 246.513 254.983 246.615C255.115 246.717 255.275 246.767 255.465 246.767ZM257.675 245.295V247H257.359V244.273H257.666V244.701H257.694C257.758 244.561 257.858 244.449 257.993 244.365C258.129 244.28 258.297 244.237 258.497 244.237C258.68 244.237 258.841 244.276 258.98 244.353C259.119 244.428 259.228 244.54 259.305 244.688C259.383 244.836 259.422 245.018 259.422 245.233V247H259.106V245.253C259.106 245.029 259.043 244.852 258.918 244.722C258.793 244.592 258.626 244.527 258.417 244.527C258.274 244.527 258.146 244.557 258.035 244.619C257.924 244.681 257.836 244.769 257.771 244.885C257.707 245 257.675 245.137 257.675 245.295ZM261.66 247V244.273H261.968V244.692H261.996C262.05 244.551 262.141 244.44 262.268 244.36C262.396 244.278 262.549 244.237 262.728 244.237C262.916 244.237 263.07 244.282 263.191 244.37C263.313 244.458 263.404 244.579 263.464 244.733H263.487C263.549 244.581 263.649 244.461 263.788 244.372C263.927 244.282 264.097 244.237 264.295 244.237C264.549 244.237 264.749 244.317 264.896 244.477C265.042 244.636 265.116 244.868 265.116 245.173V247H264.8V245.173C264.8 244.958 264.745 244.796 264.634 244.688C264.524 244.58 264.379 244.527 264.199 244.527C263.991 244.527 263.831 244.591 263.718 244.718C263.606 244.846 263.55 245.008 263.55 245.205V247H263.226V245.145C263.226 244.96 263.175 244.811 263.072 244.697C262.969 244.583 262.824 244.527 262.637 244.527C262.512 244.527 262.398 244.557 262.298 244.619C262.198 244.681 262.12 244.766 262.062 244.876C262.005 244.985 261.976 245.111 261.976 245.253V247H261.66ZM266.714 247.062C266.55 247.062 266.399 247.03 266.263 246.966C266.127 246.901 266.019 246.808 265.938 246.686C265.858 246.563 265.817 246.413 265.817 246.238C265.817 246.103 265.843 245.99 265.894 245.897C265.945 245.805 266.017 245.729 266.11 245.67C266.204 245.611 266.315 245.564 266.442 245.53C266.57 245.496 266.711 245.469 266.865 245.45C267.018 245.431 267.147 245.414 267.252 245.4C267.359 245.386 267.44 245.364 267.495 245.333C267.551 245.302 267.579 245.252 267.579 245.184V245.12C267.579 244.934 267.523 244.788 267.412 244.681C267.302 244.573 267.143 244.52 266.936 244.52C266.74 244.52 266.579 244.563 266.455 244.649C266.332 244.736 266.245 244.837 266.196 244.955L265.896 244.846C265.957 244.697 266.042 244.578 266.151 244.489C266.26 244.399 266.382 244.335 266.517 244.296C266.652 244.256 266.789 244.235 266.927 244.235C267.031 244.235 267.14 244.249 267.252 244.276C267.366 244.304 267.471 244.351 267.568 244.418C267.665 244.485 267.744 244.578 267.804 244.697C267.865 244.815 267.895 244.966 267.895 245.148V247H267.579V246.569H267.559C267.521 246.649 267.465 246.727 267.391 246.803C267.316 246.879 267.223 246.941 267.11 246.989C266.998 247.038 266.866 247.062 266.714 247.062ZM266.757 246.773C266.925 246.773 267.07 246.735 267.194 246.661C267.317 246.586 267.411 246.487 267.478 246.364C267.545 246.24 267.579 246.103 267.579 245.954V245.56C267.555 245.583 267.516 245.603 267.46 245.62C267.405 245.638 267.342 245.654 267.27 245.668C267.199 245.681 267.128 245.693 267.057 245.702C266.986 245.712 266.922 245.72 266.865 245.727C266.711 245.746 266.58 245.775 266.471 245.816C266.362 245.856 266.279 245.912 266.221 245.983C266.163 246.052 266.134 246.142 266.134 246.252C266.134 246.418 266.193 246.547 266.311 246.638C266.429 246.728 266.578 246.773 266.757 246.773ZM269.052 245.295V247H268.736V244.273H269.043V244.701H269.071C269.135 244.561 269.235 244.449 269.369 244.365C269.506 244.28 269.674 244.237 269.874 244.237C270.057 244.237 270.218 244.276 270.357 244.353C270.496 244.428 270.605 244.54 270.682 244.688C270.76 244.836 270.799 245.018 270.799 245.233V247H270.483V245.253C270.483 245.029 270.42 244.852 270.295 244.722C270.17 244.592 270.003 244.527 269.794 244.527C269.651 244.527 269.523 244.557 269.412 244.619C269.301 244.681 269.213 244.769 269.148 244.885C269.084 245 269.052 245.137 269.052 245.295ZM272.672 248.08C272.486 248.08 272.323 248.055 272.183 248.007C272.044 247.959 271.926 247.894 271.83 247.811C271.734 247.729 271.66 247.636 271.606 247.533L271.866 247.362C271.905 247.431 271.957 247.498 272.022 247.565C272.088 247.631 272.174 247.686 272.279 247.73C272.386 247.774 272.517 247.795 272.672 247.795C272.913 247.795 273.108 247.735 273.256 247.614C273.405 247.494 273.479 247.306 273.479 247.051V246.437H273.451C273.414 246.52 273.362 246.603 273.293 246.686C273.224 246.767 273.134 246.835 273.023 246.89C272.913 246.944 272.776 246.972 272.613 246.972C272.395 246.972 272.202 246.918 272.032 246.81C271.864 246.702 271.732 246.548 271.635 246.348C271.539 246.147 271.491 245.907 271.491 245.629C271.491 245.353 271.538 245.111 271.631 244.901C271.726 244.692 271.858 244.528 272.027 244.411C272.196 244.294 272.393 244.235 272.618 244.235C272.785 244.235 272.924 244.265 273.034 244.324C273.144 244.382 273.232 244.454 273.298 244.541C273.366 244.627 273.419 244.711 273.456 244.793H273.488V244.273H273.797V247.071C273.797 247.302 273.748 247.492 273.65 247.641C273.552 247.79 273.418 247.9 273.249 247.971C273.079 248.043 272.887 248.08 272.672 248.08ZM272.65 246.682C272.825 246.682 272.975 246.64 273.1 246.556C273.224 246.471 273.319 246.349 273.385 246.19C273.452 246.032 273.485 245.843 273.485 245.624C273.485 245.411 273.452 245.222 273.387 245.058C273.322 244.892 273.227 244.762 273.103 244.667C272.98 244.571 272.829 244.523 272.65 244.523C272.468 244.523 272.314 244.572 272.189 244.67C272.063 244.769 271.968 244.901 271.905 245.068C271.841 245.234 271.809 245.419 271.809 245.624C271.809 245.832 271.841 246.016 271.906 246.176C271.971 246.335 272.067 246.459 272.192 246.549C272.318 246.638 272.47 246.682 272.65 246.682ZM275.396 247.062C275.231 247.062 275.081 247.03 274.945 246.966C274.809 246.901 274.7 246.808 274.62 246.686C274.539 246.563 274.499 246.413 274.499 246.238C274.499 246.103 274.525 245.99 274.575 245.897C274.626 245.805 274.699 245.729 274.792 245.67C274.886 245.611 274.996 245.564 275.124 245.53C275.252 245.496 275.393 245.469 275.547 245.45C275.699 245.431 275.828 245.414 275.934 245.4C276.04 245.386 276.121 245.364 276.177 245.333C276.233 245.302 276.26 245.252 276.26 245.184V245.12C276.26 244.934 276.205 244.788 276.094 244.681C275.983 244.573 275.825 244.52 275.618 244.52C275.421 244.52 275.261 244.563 275.137 244.649C275.013 244.736 274.927 244.837 274.877 244.955L274.577 244.846C274.639 244.697 274.724 244.578 274.833 244.489C274.942 244.399 275.064 244.335 275.199 244.296C275.334 244.256 275.47 244.235 275.609 244.235C275.713 244.235 275.821 244.249 275.934 244.276C276.047 244.304 276.153 244.351 276.25 244.418C276.347 244.485 276.426 244.578 276.486 244.697C276.546 244.815 276.577 244.966 276.577 245.148V247H276.26V246.569H276.241C276.203 246.649 276.147 246.727 276.072 246.803C275.998 246.879 275.904 246.941 275.792 246.989C275.679 247.038 275.547 247.062 275.396 247.062ZM275.438 246.773C275.606 246.773 275.752 246.735 275.875 246.661C275.998 246.586 276.093 246.487 276.159 246.364C276.227 246.24 276.26 246.103 276.26 245.954V245.56C276.237 245.583 276.197 245.603 276.142 245.62C276.087 245.638 276.024 245.654 275.952 245.668C275.881 245.681 275.809 245.693 275.738 245.702C275.667 245.712 275.604 245.72 275.547 245.727C275.393 245.746 275.261 245.775 275.153 245.816C275.044 245.856 274.96 245.912 274.902 245.983C274.844 246.052 274.815 246.142 274.815 246.252C274.815 246.418 274.874 246.547 274.993 246.638C275.111 246.728 275.26 246.773 275.438 246.773Z" fill="white"/>
<g filter="url(#filter0_d_1_23)">
<path d="M276.779 16L152.021 117.111L28.0777 16H276.779ZM151.389 117.623C151.39 117.622 151.391 117.622 151.392 117.621L151.389 117.623Z" stroke="#FF4500" stroke-width="20" shape-rendering="crispEdges"/>
</g>
<g filter="url(#filter1_d_1_23)">
<circle cx="152" cy="130" r="50" fill="#1DA1F2"/>
</g>
<path d="M126.333 113.303V112.11L133.406 108.68V110.304L128.186 112.685L128.234 112.589V112.819L128.186 112.728L133.406 115.104V116.734L126.333 113.303ZM142.065 110.816L140.621 111.071C140.561 110.887 140.465 110.711 140.334 110.544C140.206 110.377 140.032 110.24 139.812 110.134C139.592 110.027 139.316 109.974 138.986 109.974C138.535 109.974 138.159 110.075 137.857 110.278C137.555 110.477 137.404 110.734 137.404 111.05C137.404 111.324 137.505 111.544 137.708 111.711C137.91 111.877 138.237 112.014 138.688 112.121L139.988 112.419C140.74 112.593 141.301 112.861 141.671 113.223C142.04 113.586 142.225 114.056 142.225 114.635C142.225 115.125 142.083 115.562 141.799 115.945C141.518 116.325 141.126 116.624 140.621 116.84C140.121 117.057 139.54 117.165 138.88 117.165C137.963 117.165 137.216 116.97 136.637 116.579C136.058 116.185 135.703 115.626 135.572 114.901L137.111 114.667C137.207 115.068 137.404 115.372 137.702 115.578C138.001 115.78 138.39 115.881 138.869 115.881C139.391 115.881 139.808 115.773 140.121 115.556C140.433 115.336 140.589 115.068 140.589 114.752C140.589 114.496 140.494 114.282 140.302 114.108C140.114 113.934 139.824 113.802 139.434 113.713L138.049 113.41C137.285 113.236 136.721 112.959 136.355 112.579C135.993 112.199 135.811 111.718 135.811 111.135C135.811 110.652 135.946 110.23 136.216 109.868C136.486 109.505 136.859 109.223 137.335 109.021C137.811 108.815 138.356 108.712 138.97 108.712C139.854 108.712 140.55 108.903 141.058 109.287C141.566 109.667 141.902 110.176 142.065 110.816ZM145.75 117L143.342 108.818H144.988L146.591 114.827H146.671L148.28 108.818H149.926L151.524 114.8H151.604L153.196 108.818H154.842L152.44 117H150.815L149.153 111.093H149.031L147.369 117H145.75ZM156.354 117V108.818H157.947V117H156.354ZM157.158 107.556C156.881 107.556 156.643 107.463 156.444 107.279C156.249 107.091 156.151 106.867 156.151 106.608C156.151 106.345 156.249 106.121 156.444 105.936C156.643 105.748 156.881 105.654 157.158 105.654C157.435 105.654 157.671 105.748 157.867 105.936C158.066 106.121 158.165 106.345 158.165 106.608C158.165 106.867 158.066 107.091 157.867 107.279C157.671 107.463 157.435 107.556 157.158 107.556ZM163.983 108.818V110.097H159.359V108.818H163.983ZM160.627 117V107.87C160.627 107.359 160.739 106.934 160.963 106.597C161.187 106.256 161.483 106.002 161.852 105.835C162.222 105.665 162.623 105.58 163.056 105.58C163.376 105.58 163.649 105.606 163.877 105.659C164.104 105.709 164.272 105.755 164.383 105.798L164.01 107.087C163.935 107.066 163.839 107.041 163.722 107.012C163.605 106.98 163.463 106.964 163.296 106.964C162.909 106.964 162.632 107.06 162.465 107.252C162.302 107.444 162.22 107.721 162.22 108.083V117H160.627ZM169.446 108.818V110.097H164.976V108.818H169.446ZM166.175 106.858H167.768V114.598C167.768 114.907 167.814 115.139 167.906 115.295C167.998 115.448 168.117 115.553 168.263 115.61C168.412 115.663 168.574 115.69 168.748 115.69C168.876 115.69 168.987 115.681 169.083 115.663C169.179 115.645 169.254 115.631 169.307 115.62L169.595 116.936C169.502 116.972 169.371 117.007 169.201 117.043C169.03 117.082 168.817 117.103 168.561 117.107C168.142 117.114 167.752 117.039 167.389 116.883C167.027 116.727 166.734 116.485 166.511 116.158C166.287 115.832 166.175 115.422 166.175 114.928V106.858ZM178.67 113.303L171.596 116.734V115.104L176.816 112.728L176.763 112.819V112.589L176.816 112.685L171.596 110.304V108.68L178.67 112.11V113.303ZM137.395 135V124.091H141.283C142.132 124.091 142.835 124.245 143.393 124.554C143.95 124.863 144.367 125.286 144.644 125.822C144.921 126.355 145.06 126.955 145.06 127.623C145.06 128.294 144.92 128.897 144.639 129.434C144.362 129.966 143.943 130.389 143.382 130.701C142.824 131.01 142.123 131.165 141.278 131.165H138.604V129.769H141.129C141.665 129.769 142.1 129.677 142.434 129.492C142.768 129.304 143.013 129.048 143.169 128.725C143.325 128.402 143.403 128.034 143.403 127.623C143.403 127.211 143.325 126.845 143.169 126.525C143.013 126.206 142.766 125.955 142.429 125.774C142.095 125.593 141.654 125.502 141.108 125.502H139.041V135H137.395ZM156.466 129.545C156.466 130.71 156.253 131.712 155.827 132.55C155.4 133.384 154.816 134.027 154.074 134.478C153.335 134.925 152.496 135.149 151.555 135.149C150.61 135.149 149.767 134.925 149.024 134.478C148.286 134.027 147.703 133.382 147.277 132.544C146.851 131.706 146.638 130.707 146.638 129.545C146.638 128.381 146.851 127.381 147.277 126.547C147.703 125.708 148.286 125.066 149.024 124.618C149.767 124.167 150.61 123.942 151.555 123.942C152.496 123.942 153.335 124.167 154.074 124.618C154.816 125.066 155.4 125.708 155.827 126.547C156.253 127.381 156.466 128.381 156.466 129.545ZM154.836 129.545C154.836 128.658 154.692 127.91 154.404 127.303C154.12 126.692 153.73 126.23 153.232 125.918C152.739 125.602 152.18 125.444 151.555 125.444C150.926 125.444 150.365 125.602 149.871 125.918C149.378 126.23 148.987 126.692 148.699 127.303C148.415 127.91 148.273 128.658 148.273 129.545C148.273 130.433 148.415 131.183 148.699 131.793C148.987 132.401 149.378 132.862 149.871 133.178C150.365 133.491 150.926 133.647 151.555 133.647C152.18 133.647 152.739 133.491 153.232 133.178C153.73 132.862 154.12 132.401 154.404 131.793C154.692 131.183 154.836 130.433 154.836 129.545ZM164.468 126.957C164.411 126.452 164.177 126.062 163.765 125.785C163.353 125.504 162.834 125.364 162.209 125.364C161.762 125.364 161.375 125.435 161.048 125.577C160.721 125.716 160.467 125.907 160.286 126.152C160.109 126.394 160.02 126.669 160.02 126.978C160.02 127.237 160.08 127.461 160.201 127.649C160.325 127.837 160.487 127.995 160.686 128.123C160.888 128.248 161.105 128.352 161.336 128.438C161.566 128.519 161.788 128.587 162.002 128.64L163.067 128.917C163.415 129.002 163.772 129.118 164.138 129.263C164.503 129.409 164.842 129.6 165.155 129.838C165.467 130.076 165.72 130.371 165.911 130.723C166.107 131.074 166.204 131.495 166.204 131.985C166.204 132.603 166.044 133.152 165.725 133.631C165.409 134.11 164.949 134.489 164.345 134.766C163.745 135.043 163.019 135.181 162.167 135.181C161.35 135.181 160.643 135.051 160.047 134.792C159.45 134.533 158.983 134.165 158.646 133.69C158.308 133.21 158.122 132.642 158.086 131.985H159.738C159.77 132.379 159.897 132.708 160.121 132.971C160.348 133.23 160.638 133.423 160.989 133.551C161.345 133.675 161.733 133.738 162.156 133.738C162.621 133.738 163.035 133.665 163.397 133.519C163.763 133.37 164.051 133.164 164.26 132.901C164.47 132.635 164.574 132.324 164.574 131.969C164.574 131.646 164.482 131.381 164.297 131.175C164.116 130.969 163.869 130.799 163.557 130.664C163.248 130.529 162.898 130.41 162.508 130.307L161.218 129.956C160.345 129.718 159.652 129.368 159.141 128.906C158.633 128.445 158.379 127.834 158.379 127.074C158.379 126.445 158.55 125.897 158.891 125.428C159.232 124.959 159.693 124.595 160.276 124.336C160.858 124.073 161.515 123.942 162.247 123.942C162.985 123.942 163.637 124.071 164.201 124.331C164.77 124.59 165.217 124.947 165.544 125.401C165.87 125.852 166.041 126.371 166.055 126.957H164.468ZM167.633 125.508V124.091H176.076V125.508H172.672V135H171.032V125.508H167.633ZM123.579 149.303V148.11L130.653 144.68V146.304L125.432 148.685L125.48 148.589V148.819L125.432 148.728L130.653 151.104V152.734L123.579 149.303ZM137.335 141.58L133.819 154.641H132.397L135.913 141.58H137.335ZM144.819 146.816L143.375 147.071C143.315 146.887 143.219 146.711 143.088 146.544C142.96 146.377 142.786 146.24 142.566 146.134C142.346 146.027 142.07 145.974 141.74 145.974C141.289 145.974 140.913 146.075 140.611 146.278C140.309 146.477 140.158 146.734 140.158 147.05C140.158 147.324 140.259 147.544 140.462 147.711C140.664 147.877 140.991 148.014 141.442 148.121L142.741 148.419C143.494 148.593 144.055 148.861 144.425 149.223C144.794 149.586 144.979 150.056 144.979 150.635C144.979 151.125 144.837 151.562 144.553 151.945C144.272 152.325 143.88 152.624 143.375 152.84C142.875 153.057 142.294 153.165 141.634 153.165C140.717 153.165 139.97 152.97 139.391 152.579C138.812 152.185 138.457 151.626 138.326 150.901L139.865 150.667C139.961 151.068 140.158 151.372 140.456 151.578C140.755 151.78 141.143 151.881 141.623 151.881C142.145 151.881 142.562 151.773 142.875 151.556C143.187 151.336 143.343 151.068 143.343 150.752C143.343 150.496 143.248 150.282 143.056 150.108C142.868 149.934 142.578 149.802 142.188 149.713L140.803 149.41C140.039 149.236 139.474 148.959 139.109 148.579C138.746 148.199 138.565 147.718 138.565 147.135C138.565 146.652 138.7 146.23 138.97 145.868C139.24 145.505 139.613 145.223 140.089 145.021C140.565 144.815 141.11 144.712 141.724 144.712C142.608 144.712 143.304 144.903 143.812 145.287C144.32 145.667 144.656 146.176 144.819 146.816ZM148.504 153L146.096 144.818H147.742L149.345 150.827H149.425L151.034 144.818H152.68L154.278 150.8H154.358L155.95 144.818H157.596L155.194 153H153.569L151.907 147.093H151.785L150.123 153H148.504ZM159.108 153V144.818H160.7V153H159.108ZM159.912 143.556C159.635 143.556 159.397 143.463 159.198 143.279C159.003 143.091 158.905 142.867 158.905 142.608C158.905 142.345 159.003 142.121 159.198 141.936C159.397 141.748 159.635 141.654 159.912 141.654C160.189 141.654 160.425 141.748 160.621 141.936C160.819 142.121 160.919 142.345 160.919 142.608C160.919 142.867 160.819 143.091 160.621 143.279C160.425 143.463 160.189 143.556 159.912 143.556ZM166.737 144.818V146.097H162.113V144.818H166.737ZM163.381 153V143.87C163.381 143.359 163.493 142.934 163.717 142.597C163.94 142.256 164.237 142.002 164.606 141.835C164.976 141.665 165.377 141.58 165.81 141.58C166.13 141.58 166.403 141.606 166.63 141.659C166.858 141.709 167.026 141.755 167.136 141.798L166.764 143.087C166.689 143.066 166.593 143.041 166.476 143.012C166.359 142.98 166.217 142.964 166.05 142.964C165.663 142.964 165.386 143.06 165.219 143.252C165.055 143.444 164.974 143.721 164.974 144.083V153H163.381ZM172.199 144.818V146.097H167.73V144.818H172.199ZM168.929 142.858H170.522V150.598C170.522 150.907 170.568 151.139 170.66 151.295C170.752 151.448 170.871 151.553 171.017 151.61C171.166 151.663 171.328 151.69 171.502 151.69C171.63 151.69 171.741 151.681 171.837 151.663C171.933 151.645 172.008 151.631 172.061 151.62L172.349 152.936C172.256 152.972 172.125 153.007 171.954 153.043C171.784 153.082 171.571 153.103 171.315 153.107C170.896 153.114 170.506 153.039 170.143 152.883C169.781 152.727 169.488 152.485 169.264 152.158C169.041 151.832 168.929 151.422 168.929 150.928V142.858ZM181.424 149.303L174.35 152.734V151.104L179.57 148.728L179.517 148.819V148.589L179.57 148.685L174.35 146.304V144.68L181.424 148.11V149.303Z" fill="white"/>
<circle cx="208.5" cy="212.5" r="6.5" fill="#FF4500" fill-opacity="0.6"/>
<circle cx="233.5" cy="212.5" r="6.5" fill="#FF4500" fill-opacity="0.6"/>
<circle cx="257.5" cy="212.5" r="6.5" fill="#FF4500" fill-opacity="0.6"/>
<defs>
<filter id="filter0_d_1_23" x="10.2521" y="0" width="286.367" height="135.4" filterUnits="userSpaceOnUse" color-interpolation-filters="sRGB">
<feFlood flood-opacity="0" result="BackgroundImageFix"/>
<feColorMatrix in="SourceAlpha" type="matrix" values="0 0 0 0 0 0 0 0 0 0 0 0 0 0 0 0 0 0 127 0" result="hardAlpha"/>
<feOffset dx="1" dy="1"/>
<feGaussianBlur stdDeviation="3.5"/>
<feComposite in2="hardAlpha" operator="out"/>
<feColorMatrix type="matrix" values="0 0 0 0 0 0 0 0 0 0 0 0 0 0 0 0 0 0 0.25 0"/>
<feBlend mode="normal" in2="BackgroundImageFix" result="effect1_dropShadow_1_23"/>
<feBlend mode="normal" in="SourceGraphic" in2="effect1_dropShadow_1_23" result="shape"/>
</filter>
<filter id="filter1_d_1_23" x="101" y="79" width="104" height="104" filterUnits="userSpaceOnUse" color-interpolation-filters="sRGB">
<feFlood flood-opacity="0" result="BackgroundImageFix"/>
<feColorMatrix in="SourceAlpha" type="matrix" values="0 0 0 0 0 0 0 0 0 0 0 0 0 0 0 0 0 0 127 0" result="hardAlpha"/>
<feOffset dx="1" dy="1"/>
<feGaussianBlur stdDeviation="1"/>
<feComposite in2="hardAlpha" operator="out"/>
<feColorMatrix type="matrix" values="0 0 0 0 0 0 0 0 0 0 0 0 0 0 0 0 0 0 0.25 0"/>
<feBlend mode="normal" in2="BackgroundImageFix" result="effect1_dropShadow_1_23"/>
<feBlend mode="normal" in="SourceGraphic" in2="effect1_dropShadow_1_23" result="shape"/>
</filter>
</defs>
</svg>
